<svg width="555" height="63" xmlns="http://www.w3.org/2000/svg" xmlns:xlink="http://www.w3.org/1999/xlink" overflow="hidden"><defs><clipPath id="clip0"><rect x="131" y="153" width="555" height="63"/></clipPath></defs><g clip-path="url(#clip0)" transform="translate(-131 -153)"><text font-family="Arial,Arial_MSFontService,sans-serif" font-weight="400" font-size="29" transform="translate(149.655 192)">0<tspan x="16.3333" y="0">°</tspan><tspan x="93.3333" y="0">22.5</tspan>°<tspan x="219.333" y="0">45</tspan><tspan x="252" y="0">°</tspan><tspan x="320.833" y="0">67.5</tspan><tspan x="378" y="0">°</tspan><tspan x="438.667" y="0">90</tspan><tspan x="471.333" y="0">°</tspan></text><path d="M0 0 0.000104987 11.3386" stroke="#404040" stroke-width="1.33333" stroke-miterlimit="8" fill="none" fill-rule="evenodd" transform="matrix(1 0 0 -1 159.5 214.839)"/><path d="M0 0 0.000104987 11.3386" stroke="#404040" stroke-width="1.33333" stroke-miterlimit="8" fill="none" fill-rule="evenodd" transform="matrix(1 0 0 -1 270.5 214.839)"/><path d="M0 0 0.000104987 11.3386" stroke="#404040" stroke-width="1.33333" stroke-miterlimit="8" fill="none" fill-rule="evenodd" transform="matrix(1 0 0 -1 384.5 214.839)"/><path d="M0 0 0.000104987 11.3386" stroke="#404040" stroke-width="1.33333" stroke-miterlimit="8" fill="none" fill-rule="evenodd" transform="matrix(1 0 0 -1 496.5 214.839)"/><path d="M0 0 0.000104987 11.3386" stroke="#404040" stroke-width="1.33333" stroke-miterlimit="8" fill="none" fill-rule="evenodd" transform="matrix(1 0 0 -1 607.5 214.839)"/></g></svg>