<svg width="490" height="63" xmlns="http://www.w3.org/2000/svg" xmlns:xlink="http://www.w3.org/1999/xlink" overflow="hidden"><defs><clipPath id="clip0"><rect x="120" y="386" width="490" height="63"/></clipPath></defs><g clip-path="url(#clip0)" transform="translate(-120 -386)"><text font-family="Arial,Arial_MSFontService,sans-serif" font-weight="400" font-size="29" transform="translate(138.677 425)">10<tspan font-size="20" x="32.6667" y="-9">2</tspan></text><path d="M0 0 0.000104987 11.3386" stroke="#404040" stroke-width="1.33333" stroke-miterlimit="8" fill="none" fill-rule="evenodd" transform="matrix(1 0 0 -1 157.5 446.839)"/><path d="M0 0 0.000104987 11.3386" stroke="#404040" stroke-width="1.33333" stroke-miterlimit="8" fill="none" fill-rule="evenodd" transform="matrix(1 0 0 -1 287.5 446.839)"/><path d="M0 0 0.000104987 11.3386" stroke="#404040" stroke-width="1.33333" stroke-miterlimit="8" fill="none" fill-rule="evenodd" transform="matrix(1 0 0 -1 419.5 446.839)"/><path d="M0 0 0.000104987 11.3386" stroke="#404040" stroke-width="1.33333" stroke-miterlimit="8" fill="none" fill-rule="evenodd" transform="matrix(1 0 0 -1 550.5 446.839)"/><text font-family="Arial,Arial_MSFontService,sans-serif" font-weight="400" font-size="29" transform="translate(265.072 425)">10<tspan font-size="20" x="32.6667" y="-9">3</tspan><tspan x="133.434" y="0">10</tspan><tspan font-size="20" x="166.101" y="-9">4</tspan><tspan x="240.437" y="0">infinit</tspan>e</text></g></svg>